<?xml version="1.0" encoding="UTF-8" standalone="no"?>
<!-- Created with Inkscape (http://www.inkscape.org/) -->

<svg
   version="1.1"
   id="svg2"
   width="7111.1069"
   height="4000"
   viewBox="0 0 7111.1069 4000"
   sodipodi:docname="art-6689072.ai"
   xmlns:inkscape="http://www.inkscape.org/namespaces/inkscape"
   xmlns:sodipodi="http://sodipodi.sourceforge.net/DTD/sodipodi-0.dtd"
   xmlns="http://www.w3.org/2000/svg"
   xmlns:svg="http://www.w3.org/2000/svg">
  <defs
     id="defs6" />
  <sodipodi:namedview
     id="namedview4"
     pagecolor="#ffffff"
     bordercolor="#000000"
     borderopacity="0.25"
     inkscape:showpageshadow="2"
     inkscape:pageopacity="0.0"
     inkscape:pagecheckerboard="0"
     inkscape:deskcolor="#d1d1d1" />
  <g
     id="g8"
     inkscape:groupmode="layer"
     inkscape:label="art-6689072"
     transform="matrix(1.3333333,0,0,-1.3333333,0,4000)">
    <path
       d="M 0,0 H 5333.329 V 2999.999 H 0 Z"
       style="fill:#1a1f25;fill-opacity:1;fill-rule:nonzero;stroke:none"
       id="path10" />
    <g
       id="g12"
       transform="translate(3473.6326,2341.9712)">
      <path
         d="m 0,0 -203.362,206.611 12.053,65.522 44.486,20.075 23.017,-7.29 L 82.218,81.857 98.137,51.562 Z"
         style="fill:#eaff00;fill-opacity:1;fill-rule:evenodd;stroke:none"
         id="path14" />
    </g>
    <g
       id="g16"
       transform="translate(1423.5785,738.5865)">
      <path
         d="m 0,0 215.098,-223.507 42.067,-46.953 78.674,85.71 -35.921,45.688 L 86.634,77.638 61.863,99.275 -3.783,9.757 Z"
         style="fill:#eaff0f;fill-opacity:1;fill-rule:evenodd;stroke:none"
         id="path18" />
    </g>
    <g
       id="g20"
       transform="translate(5081.0107,2197.1499)">
      <path
         d="m 0,0 -2169.234,-2197.15 h 161.697 L 81.601,-81.724 89.363,-65.828 15.579,15.553 Z"
         style="fill:#e9fe03;fill-opacity:1;fill-rule:nonzero;stroke:none"
         id="path22" />
    </g>
    <g
       id="g24"
       transform="translate(4838.3799,2437.0701)">
      <path
         d="m 0,0 121.329,-164.59 349.75,-357.319 23.87,-17.651 v 867.103 z m 470.534,-596.778 -562.87,-563.782 -72.596,-210.969 659.881,-689.428 v 1473.729 z"
         style="fill:#000003;fill-opacity:1;fill-rule:nonzero;stroke:none"
         id="path26" />
    </g>
    <g
       id="g28"
       transform="translate(4838.3799,2437.0701)">
      <path
         d="m 0,0 147.096,-144.245 347.853,-348.366 v 820.154 z m -59.239,-1177.922 -105.693,-193.607 659.881,-689.428 v 1443.561 z"
         style="fill:#2b2f35;fill-opacity:1;fill-rule:nonzero;stroke:none"
         id="path30" />
    </g>
    <g
       id="g32"
       transform="translate(4184.6855,1723.6819)">
      <path
         d="m 0,0 -781.25,-598.96 46.913,-346.927 384.962,-400.129 -374.89,-377.666 h 1872.909 v 766.174 L 240.695,17.546 Z"
         style="fill:#000003;fill-opacity:1;fill-rule:nonzero;stroke:none"
         id="path34" />
    </g>
    <g
       id="g36"
       transform="translate(3403.4358,1124.7223)">
      <path
         d="m 0,0 97.37,-314.376 418.054,-432.137 -376.517,-378.209 h 1790.986 v 692.836 L 966.063,553.031 781.25,598.96 Z"
         style="fill:#2b2f35;fill-opacity:1;fill-rule:nonzero;stroke:none"
         id="path38" />
    </g>
    <g
       id="g40"
       transform="translate(4539.6367,622.9532)">
      <path
         d="M 0,0 275.407,-285.284 793.692,223.462 V 776.185 Z"
         style="fill:#3c2e11;fill-opacity:1;fill-rule:nonzero;stroke:none"
         id="path42" />
    </g>
    <g
       id="g44"
       transform="translate(4585.9487,626.2339)">
      <path
         d="M 0,0 236.544,-249.567 747.38,252.264 v 496.444 z"
         style="fill:#e8ff00;fill-opacity:1;fill-rule:nonzero;stroke:none"
         id="path46" />
    </g>
    <g
       id="g48"
       transform="translate(4277.792,3000.0002)">
      <path
         d="M 0,0 -3013.239,-3000 H -1445.3 L 1055.537,-502.855 V 0 Z"
         style="fill:#000003;fill-opacity:1;fill-rule:nonzero;stroke:none"
         id="path50" />
    </g>
    <g
       id="g52"
       transform="translate(4134.5645,3000.0002)">
      <path
         d="m 0,0 -3013.241,-3000 h 1567.938 L 1198.765,-359.836 V 0 Z"
         style="fill:#373a41;fill-opacity:1;fill-rule:nonzero;stroke:none"
         id="path54" />
    </g>
    <g
       id="g56"
       transform="translate(723.4805,3000.0002)">
      <path
         d="M 0,0 699.238,-708.168 506.357,-890.04 -390.931,0 h -332.55 v -1526.516 l 154.591,-156.666 -154.591,-159.64 V -3000 H 42.949 L 3090.917,0 Z"
         style="fill:#000003;fill-opacity:1;fill-rule:nonzero;stroke:none"
         id="path58" />
    </g>
    <g
       id="g60"
       transform="translate(1552.2787,773.482)">
      <path
         d="m 0,0 -83.339,-82.027 -45.361,47.131 -3.783,9.757 65.646,89.519 24.771,-21.638 z"
         style="fill:#3f1f0f;fill-opacity:1;fill-rule:evenodd;stroke:none"
         id="path62" />
    </g>
    <g
       id="g64"
       transform="translate(781.8494,3000.0002)">
      <path
         d="M 0,0 707.474,-711.47 453.569,-956.696 -506.723,0 h -275.126 v -1421.124 l 251.265,-250.654 -251.265,-258.271 V -3000 h 680.938 L 2947.055,0 Z"
         style="fill:#373a41;fill-opacity:1;fill-rule:nonzero;stroke:none"
         id="path66" />
    </g>
    <g
       id="g68"
       transform="translate(0,3000.0002)">
      <path
         d="M 0,0 V -1421.124 L 251.265,-1671.778 0,-1930.049 V -3000 h 680.938 l 559.776,550.968 -5.296,1492.336 L 275.127,0 Z"
         style="fill:#2b2f35;fill-opacity:1;fill-rule:nonzero;stroke:none"
         id="path70" />
    </g>
    <g
       id="g72"
       transform="translate(0,2028.3864)">
      <path
         d="M 0,0 V -577.169 L 1250.133,675.132 966.932,962.709 Z"
         style="fill:#000003;fill-opacity:1;fill-rule:nonzero;stroke:none"
         id="path74" />
    </g>
    <g
       id="g76"
       transform="translate(0,1990.6985)">
      <path
         d="M 0,0 V -502.361 L 1152.488,652.123 906.19,902.23 Z"
         style="fill:#e8ff00;fill-opacity:1;fill-rule:nonzero;stroke:none"
         id="path78" />
    </g>
    <g
       id="g80"
       transform="translate(2247.3833,3000.0002)">
      <path
         d="M 0,0 737.47,-732.343 1481.521,0 Z M -1465.534,0 -758.06,-711.47 -26.857,0 Z"
         style="fill:#2b2f35;fill-opacity:1;fill-rule:nonzero;stroke:none"
         id="path82" />
    </g>
  </g>
</svg>
