<?xml version="1.0" encoding="UTF-8" standalone="no"?>
<!-- Created with Inkscape (http://www.inkscape.org/) -->

<svg
   version="1.1"
   id="svg2"
   width="7111.1069"
   height="4000"
   viewBox="0 0 7111.1069 4000"
   sodipodi:docname="background-6360861.ai"
   xmlns:inkscape="http://www.inkscape.org/namespaces/inkscape"
   xmlns:sodipodi="http://sodipodi.sourceforge.net/DTD/sodipodi-0.dtd"
   xmlns="http://www.w3.org/2000/svg"
   xmlns:svg="http://www.w3.org/2000/svg">
  <defs
     id="defs6">
    <clipPath
       clipPathUnits="userSpaceOnUse"
       id="clipPath18">
      <path
         d="M 0,3000 H 5333.33 V 0 H 0 Z"
         id="path16" />
    </clipPath>
  </defs>
  <sodipodi:namedview
     id="namedview4"
     pagecolor="#ffffff"
     bordercolor="#000000"
     borderopacity="0.25"
     inkscape:showpageshadow="2"
     inkscape:pageopacity="0.0"
     inkscape:pagecheckerboard="0"
     inkscape:deskcolor="#d1d1d1" />
  <g
     id="g8"
     inkscape:groupmode="layer"
     inkscape:label="background-6360861"
     transform="matrix(1.3333333,0,0,-1.3333333,0,4000)">
    <path
       d="M 0,0.009 H 5333.329 V 3000 H 0 Z"
       style="fill:#fdfcdc;fill-opacity:1;fill-rule:nonzero;stroke:none"
       id="path10" />
    <g
       id="g12">
      <g
         id="g14"
         clip-path="url(#clipPath18)">
        <g
           id="g20"
           transform="translate(230.4667,1681.1559)">
          <path
             d="M 0,0 C -76.335,6.555 -153.317,10.151 -230.467,10.65 V -1681.146 H 979.582 c 67.673,123.031 90.587,266.386 100.932,406.823 25.678,348.707 -32.391,731.079 -282.457,975.468 C 590.734,-96.24 288.829,-24.796 0,0"
             style="fill:#fed9b7;fill-opacity:1;fill-rule:evenodd;stroke:none"
             id="path22" />
        </g>
        <g
           id="g24"
           transform="translate(-1e-4,591.439)">
          <path
             d="m 0,0 c 58.734,20.748 119.02,37.798 179.196,52.89 305.427,76.597 621.414,110.952 936.168,101.785 344.048,-10.027 719.622,-63.993 1005.888,127.116 285.066,190.306 381.558,560.993 423.084,901.217 41.535,340.222 56.664,702.952 249.76,986.13 62.54,91.706 140.787,169.895 227.255,239.423 L 0,2408.561 Z"
             style="fill:#fed9b7;fill-opacity:1;fill-rule:evenodd;stroke:none"
             id="path26" />
        </g>
        <g
           id="g28"
           transform="translate(-1e-4,532.7447)">
          <path
             d="m 0,0 c 36.874,-13.051 74.778,-23.041 112.907,-29.8 184.744,-32.743 387.096,4.193 530.263,125.456 224.087,189.796 250.682,517.214 331.804,799.451 20.137,70.049 45.705,140.926 94.635,194.941 52.983,58.494 127.943,91.408 201.346,120.42 80.833,31.956 165.935,61.699 252.559,54.489 151.413,-12.603 268.159,-131.523 385.918,-227.533 230.912,-188.255 516.095,-309.145 811.944,-344.181 140.649,-16.653 285.908,-13.87 420.334,30.71 163.846,54.34 302.274,167.589 418.608,295.124 296.947,325.525 471.264,802.044 318.853,1215.458 -30.761,83.448 -73.225,160.719 -124.01,232.72 H 0 Z"
             style="fill:#f07167;fill-opacity:1;fill-rule:evenodd;stroke:none"
             id="path30" />
        </g>
        <g
           id="g32"
           transform="translate(4963.9658,2651.9751)">
          <path
             d="m 0,0 c -95.433,-174.317 -270.288,-298.248 -349.668,-480.436 -71.886,-164.993 -51.582,-366.751 51.745,-514.11 110.943,-158.215 298.576,-243.159 482.913,-301.112 59.233,-18.625 121.532,-34.704 184.374,-45.157 V 348.025 H 89.774 C 83.718,225.87 58.874,107.533 0,0"
             style="fill:#0081a7;fill-opacity:1;fill-rule:evenodd;stroke:none"
             id="path34" />
        </g>
        <g
           id="g36"
           transform="translate(-1e-4,1934.6534)">
          <path
             d="m 0,0 c 79.427,-30.132 165.335,-39.699 247.48,-19.209 90.513,22.578 168.855,78.621 240.138,138.799 158.167,133.529 297.634,295.79 484.635,384.54 236.779,112.371 511.595,90.055 773.458,100.937 261.863,10.877 552.106,76.021 696.643,294.656 33.816,51.155 57.064,107.067 73.406,165.624 H 0 Z"
             style="fill:#0081a7;fill-opacity:1;fill-rule:evenodd;stroke:none"
             id="path38" />
        </g>
        <g
           id="g40"
           transform="translate(5333.3301,839.3648)">
          <path
             d="m 0,0 c -100.784,-21.791 -203.658,-52.011 -280.673,-120.351 -125.941,-111.761 -153.159,-297.706 -146.132,-465.944 3.546,-84.996 13.671,-169.232 27.326,-253.06 H 0 Z"
             style="fill:#fed9b7;fill-opacity:1;fill-rule:evenodd;stroke:none"
             id="path42" />
        </g>
        <g
           id="g44"
           transform="translate(4816.5391,2301.0728)">
          <path
             d="m 0,0 c 0,66.704 -54.072,120.775 -120.771,120.775 -66.7,0 -120.771,-54.071 -120.771,-120.775 0,-66.699 54.071,-120.771 120.771,-120.771 C -54.072,-120.771 0,-66.699 0,0"
             style="fill:#00afb9;fill-opacity:1;fill-rule:evenodd;stroke:none"
             id="path46" />
        </g>
        <g
           id="g48"
           transform="translate(5084.5176,0.0094)">
          <path
             d="M 0,0 C -17.844,64.871 -77.251,112.536 -147.793,112.536 -218.341,112.536 -277.742,64.871 -295.587,0 Z"
             style="fill:#00afb9;fill-opacity:1;fill-rule:evenodd;stroke:none"
             id="path50" />
        </g>
        <g
           id="g52"
           transform="translate(1012.8368,2380.8242)">
          <path
             d="m 0,0 c 0,84.655 -68.627,153.277 -153.28,153.277 -84.655,0 -153.281,-68.622 -153.281,-153.277 0,-84.659 68.626,-153.281 153.281,-153.281 C -68.627,-153.281 0,-84.659 0,0"
             style="fill:#00afb9;fill-opacity:1;fill-rule:evenodd;stroke:none"
             id="path54" />
        </g>
        <g
           id="g56"
           transform="translate(5047.9238,1904.5577)">
          <path
             d="M 0,0 C 0,-180.416 120.507,-332.667 285.406,-380.715 V 380.712 C 120.507,332.667 0,180.416 0,0"
             style="fill:#00afb9;fill-opacity:1;fill-rule:evenodd;stroke:none"
             id="path58" />
        </g>
        <g
           id="g60"
           transform="translate(-1e-4,518.2007)">
          <path
             d="M 0,0 C 164.905,48.048 285.407,200.299 285.407,380.716 285.407,561.132 164.905,713.383 0,761.43"
             style="fill:none;stroke:#0081a7;stroke-width:4;stroke-linecap:butt;stroke-linejoin:miter;stroke-miterlimit:10;stroke-dasharray:none;stroke-opacity:1"
             id="path62" />
        </g>
      </g>
    </g>
  </g>
</svg>
