<?xml version="1.0" encoding="utf-8"?>
<!-- Generator: Adobe Illustrator 22.1.0, SVG Export Plug-In . SVG Version: 6.00 Build 0)  -->
<svg version="1.1" id="Layer_1" xmlns="http://www.w3.org/2000/svg" xmlns:xlink="http://www.w3.org/1999/xlink" x="0px" y="0px"
	 viewBox="0 0 500 500" style="enable-background:new 0 0 500 500;" xml:space="preserve">
<style type="text/css">
	.st0{fill:#00BFBA;}
	.st1{opacity:0.14;fill:#2B41E3;}
	.st2{opacity:0.28;}
	.st3{fill:#FFFFFF;}
	.st4{fill:#292685;}
	.st5{fill-rule:evenodd;clip-rule:evenodd;fill:#E6EEFF;}
	.st6{fill-rule:evenodd;clip-rule:evenodd;fill:#3071FF;}
	.st7{fill-rule:evenodd;clip-rule:evenodd;fill:#CFDEFF;}
	.st8{fill-rule:evenodd;clip-rule:evenodd;fill:#FFFFFF;}
	.st9{fill-rule:evenodd;clip-rule:evenodd;fill:#2A63E0;}
	.st10{fill-rule:evenodd;clip-rule:evenodd;fill:#F5B8B0;}
	.st11{fill:#F5F6F7;}
	.st12{fill:#FF85FF;}
	.st13{fill:#FF65FF;}
	.st14{fill:#F6F3EE;}
	.st15{fill:#013AD6;}
	.st16{fill-rule:evenodd;clip-rule:evenodd;fill:#142585;}
	.st17{fill-rule:evenodd;clip-rule:evenodd;fill:#E09F98;}
	.st18{fill:#142585;}
	.st19{fill:#FBFBFF;}
	.st20{fill:#0145FF;}
	.st21{opacity:0.32;}
	.st22{opacity:0.24;}
	.st23{fill:none;stroke:#FFFFFF;stroke-width:0.9459;stroke-linecap:round;stroke-linejoin:round;stroke-miterlimit:10;}
	.st24{opacity:0.28;fill:#FFFFFF;}
	.st25{opacity:0.29;fill:#2D69ED;}
	.st26{opacity:0.25;fill:#D6E3FF;}
	.st27{fill:#3075FF;}
	.st28{fill:#1D59DE;}
	.st29{fill:#A1BFFF;}
	.st30{fill:#F0F5FF;}
	.st31{fill:#3071FF;}
	.st32{fill:#C2D5FF;}
	.st33{fill:#548CFF;}
	.st34{fill:#2C67DE;}
	.st35{fill:#82AAFF;}
	.st36{fill:#275ACF;}
	.st37{fill:#D9E5FF;}
	.st38{fill:#BA4ABA;}
	.st39{fill:#BDD1FF;}
	.st40{fill:none;stroke:#292685;stroke-linecap:round;stroke-linejoin:round;stroke-miterlimit:10;}
	.st41{fill:#FFFFFF;stroke:#FFFFFF;stroke-width:1.4852;stroke-miterlimit:10;}
	.st42{fill:#ADC7FF;}
	.st43{fill:none;stroke:#FFFFFF;stroke-width:0.6164;stroke-linecap:round;stroke-linejoin:round;stroke-miterlimit:10;}
	.st44{fill:none;stroke:#FFFFFF;stroke-width:0.5688;stroke-linecap:round;stroke-linejoin:round;stroke-miterlimit:10;}
	.st45{opacity:0.33;fill:#2555C4;}
	.st46{fill:url(#SVGID_1_);}
	.st47{fill:#D6E3FF;}
	.st48{fill:none;stroke:#BFD3FF;stroke-width:1.0825;stroke-miterlimit:10;}
	.st49{fill:#E6EDFF;}
	.st50{fill-rule:evenodd;clip-rule:evenodd;fill:#82AAFF;}
	.st51{fill:#F0F0F0;}
</style>
<path class="st0" d="M0.1,0H500v500C443.7-2.6,158.5,304.9,0.1,0z"/>
<g>
	<polygon class="st32" points="51.5,274.6 118.7,274.6 450.4,271.4 470.2,307.8 35.7,307.8 	"/>
	<polygon class="st32" points="347.2,199 158.5,199 179.9,178.1 329,178.1 	"/>
	<rect x="35.7" y="307.8" class="st33" width="123.1" height="192.2"/>
	<rect x="143.5" y="307.8" class="st34" width="15.2" height="192.2"/>
	<rect x="158.5" y="199" class="st29" width="188.8" height="301"/>
	<rect x="158.5" y="199" class="st35" width="188.8" height="301"/>
	<rect x="55.1" y="415.1" class="st36" width="78.4" height="63.2"/>
	<rect x="55.1" y="346.2" class="st36" width="78.4" height="58.5"/>
	<polygon class="st31" points="55.3,404.7 55.3,346.2 133.7,346.2 	"/>
	<polygon class="st31" points="55.3,473.6 55.3,415.1 133.7,415.1 	"/>
	<rect x="347.1" y="307.8" class="st33" width="123.1" height="192.2"/>
	<rect x="366.5" y="415.1" class="st36" width="78.4" height="63.2"/>
	<rect x="366.5" y="346.2" class="st36" width="78.4" height="58.5"/>
	<polygon class="st31" points="366.8,404.7 366.8,346.2 445.1,346.2 	"/>
	<polygon class="st31" points="366.8,473.6 366.8,415.1 445.1,415.1 	"/>
	<rect x="255.4" y="389.3" class="st36" width="58.2" height="110.7"/>
	<rect x="188.3" y="389.3" class="st36" width="58.2" height="110.7"/>
	<polygon class="st31" points="188.3,500 188.3,389.3 246.5,389.3 	"/>
	<polygon class="st31" points="255.4,500 255.4,389.3 313.7,389.3 	"/>
	<g>
		<g>
			<rect x="310.5" y="328.3" class="st31" width="16.9" height="30.3"/>
			<rect x="277.6" y="328.3" class="st31" width="16.9" height="30.3"/>
			<rect x="244.6" y="328.3" class="st31" width="16.9" height="30.3"/>
			<rect x="211.7" y="328.3" class="st31" width="16.9" height="30.3"/>
			<rect x="178.8" y="328.3" class="st31" width="16.9" height="30.3"/>
		</g>
	</g>
	<g>
		<g>
			<rect x="310.5" y="281.7" class="st31" width="16.9" height="30.3"/>
			<rect x="277.6" y="281.7" class="st31" width="16.9" height="30.3"/>
			<rect x="244.6" y="281.7" class="st31" width="16.9" height="30.3"/>
			<rect x="211.7" y="281.7" class="st31" width="16.9" height="30.3"/>
			<rect x="178.8" y="281.7" class="st31" width="16.9" height="30.3"/>
		</g>
	</g>
	<g>
		<g>
			<rect x="310.5" y="235.1" class="st31" width="16.9" height="30.3"/>
			<rect x="277.6" y="235.1" class="st31" width="16.9" height="30.3"/>
			<rect x="244.6" y="235.1" class="st31" width="16.9" height="30.3"/>
			<rect x="211.7" y="235.1" class="st31" width="16.9" height="30.3"/>
			<rect x="178.8" y="235.1" class="st31" width="16.9" height="30.3"/>
		</g>
	</g>
	<polygon class="st37" points="334.3,391 168.7,391 175.5,376.9 328.5,376.9 	"/>
	
		<ellipse transform="matrix(0.9211 -0.3893 0.3893 0.9211 -62.1332 114.197)" class="st38" cx="250.7" cy="210.4" rx="28.1" ry="28.1"/>
	
		<ellipse transform="matrix(0.1616 -0.9869 0.9869 0.1616 -3.6085 429.0203)" class="st13" cx="250.7" cy="216.6" rx="28.1" ry="28.1"/>
	<g>
		<g>
			<path class="st3" d="M250.7,232.7L250.7,232.7c-3.1,0-5.7-2.6-5.7-5.7v-20.7c0-3.1,2.6-5.7,5.7-5.7l0,0c3.1,0,5.7,2.6,5.7,5.7
				V227C256.4,230.1,253.8,232.7,250.7,232.7z"/>
		</g>
	</g>
	<g>
		<g>
			<path class="st3" d="M234.7,216.6L234.7,216.6c0-3.1,2.6-5.7,5.7-5.7H261c3.1,0,5.7,2.6,5.7,5.7l0,0c0,3.1-2.6,5.7-5.7,5.7h-20.7
				C237.2,222.3,234.7,219.8,234.7,216.6z"/>
		</g>
	</g>
	<rect x="168.7" y="391" class="st32" width="165.5" height="20.7"/>
	<line class="st40" x1="174" y1="265.4" x2="333.5" y2="265.4"/>
	<line class="st40" x1="174" y1="312" x2="333.5" y2="312"/>
	<line class="st40" x1="174" y1="358.6" x2="333.5" y2="358.6"/>
	<path class="st3" d="M390,415.1h-35.7c-5.9,0-10.7-4.8-10.7-10.7v-31.3c0-5.9,4.8-10.7,10.7-10.7H390c5.9,0,10.7,4.8,10.7,10.7
		v31.3C400.7,410.3,395.9,415.1,390,415.1z"/>
	<path class="st3" d="M349.4,407.2l-2.8,19.7c-0.4,2.6,2.6,4.3,4.6,2.7l20.4-16.2L349.4,407.2z"/>
	<circle class="st38" cx="373.1" cy="388.8" r="16.8"/>
	
		<ellipse transform="matrix(0.161 -0.987 0.987 0.161 -74.1511 697.3253)" class="st13" cx="373.1" cy="392.3" rx="16.8" ry="16.8"/>
	<g>
		<path class="st41" d="M372.5,388l-0.4,0.2c-1.1,0.4-2.3-0.1-2.7-1.1l-1-2.3c-0.4-1.1,0.1-2.3,1.1-2.7l0.4-0.2
			c1.1-0.4,2.3,0.1,2.7,1.1l1,2.3C374.1,386.3,373.6,387.5,372.5,388z"/>
		<path class="st41" d="M379.1,402l-1.6,0.7c-1,0.4-2.2-0.1-2.7-1.1l-0.9-2.2c-0.4-1,0.1-2.2,1.1-2.7l1.6-0.7c1-0.4,2.2,0.1,2.7,1.1
			l0.9,2.2C380.6,400.3,380.1,401.5,379.1,402z"/>
		<path class="st41" d="M377,402.7L377,402.7c-6.8,2.4-15.1-18-7.6-20.6c0,0,1.3,0.9,1.6,1.8c-1.3,5.3,0,10.8,5.5,13.2l1.4,3.4
			C378.2,401.3,377.8,402.3,377,402.7z"/>
	</g>
	<path class="st42" d="M128.5,144.1c0-3.2-2.6-5.8-5.8-5.8c0,0,0,0,0,0c-0.2-6.1-5.2-11-11.3-11c-5.1,0-9.4,3.4-10.8,8.1
		c-1.4,0.7-2.6,1.7-3.3,3c-0.3-0.1-0.7-0.1-1.1-0.1c-3.2,0-5.8,2.6-5.8,5.8c0,3.1,2.4,5.6,5.4,5.8l0,0h27.4l0,0
		C126.1,149.7,128.5,147.2,128.5,144.1z"/>
	<path class="st42" d="M425.2,211.6c0-3.7-3-6.6-6.6-6.6c0,0,0,0,0,0c-0.2-6.9-5.9-12.5-12.9-12.5c-5.8,0-10.7,3.9-12.3,9.2
		c-1.6,0.7-2.9,2-3.8,3.5c-0.4-0.1-0.8-0.1-1.2-0.1c-3.7,0-6.6,3-6.6,6.6c0,3.5,2.7,6.3,6.1,6.6l0,0H419l0,0
		C422.4,218,425.2,215.2,425.2,211.6z"/>
	<g class="st21">
		<path class="st3" d="M423.7,138.6L409,134c-1-0.3-1.5-1.3-1.2-2.3l4.6-14.7c0.3-1,1.3-1.5,2.3-1.2l14.7,4.6c1,0.3,1.5,1.3,1.2,2.3
			l-4.6,14.7C425.7,138.3,424.7,138.9,423.7,138.6z M411.8,131l11.2,3.5l3.5-11.2l-11.2-3.5L411.8,131z"/>
	</g>
	<g class="st22">
		<path class="st3" d="M55.7,134.5c-5.4,0-9.8-4.4-9.8-9.8c0-5.4,4.4-9.8,9.8-9.8c5.4,0,9.8,4.4,9.8,9.8
			C65.5,130.1,61.1,134.5,55.7,134.5z M55.7,119c-3.1,0-5.7,2.6-5.7,5.7c0,3.1,2.6,5.7,5.7,5.7c3.1,0,5.7-2.6,5.7-5.7
			C61.4,121.6,58.9,119,55.7,119z"/>
	</g>
	<path class="st23" d="M228.5,138.6c2.9,0,59.4,0,59.4,0"/>
	<path class="st24" d="M116.6,324.1c0,2.1-1.7,3.7-3.7,3.7c-2.1,0-3.7-1.7-3.7-3.7c0-2.1,1.7-3.7,3.7-3.7
		C114.9,320.4,116.6,322.1,116.6,324.1z"/>
	
		<rect x="100.6" y="422.3" transform="matrix(-1 -1.224647e-16 1.224647e-16 -1 271.5284 884.1016)" class="st43" width="70.4" height="39.5"/>
	<polyline class="st43" points="212.5,493 182.1,493 167.8,465.6 	"/>
	<line class="st44" x1="159.3" y1="435.1" x2="109.4" y2="435.1"/>
	<line class="st44" x1="159.3" y1="442.1" x2="109.4" y2="442.1"/>
	<line class="st44" x1="159.3" y1="449.7" x2="123.4" y2="449.7"/>
</g>
</svg>
