<?xml version="1.0" encoding="UTF-8" standalone="no"?>
<!DOCTYPE svg PUBLIC "-//W3C//DTD SVG 1.1//EN" "http://www.w3.org/Graphics/SVG/1.1/DTD/svg11.dtd">
<svg width="100%" height="100%" viewBox="0 0 500 500" version="1.1" xmlns="http://www.w3.org/2000/svg" xmlns:xlink="http://www.w3.org/1999/xlink" xml:space="preserve" xmlns:serif="http://www.serif.com/" style="fill-rule:evenodd;clip-rule:evenodd;stroke-linejoin:round;stroke-miterlimit:2;">
    <g id="Upload">
        <path d="M246.381,222.526L246.321,222.551L246.26,222.577L246.207,222.599L246.154,222.623L246.101,222.646L246.048,222.67L245.995,222.695L245.943,222.719L245.89,222.744L245.838,222.77L245.786,222.795L245.733,222.821L245.681,222.847L245.63,222.874L245.578,222.901L245.526,222.928L245.475,222.956L245.423,222.984L245.372,223.013L245.321,223.041L245.27,223.07L245.219,223.1L245.169,223.129L245.118,223.159L245.068,223.19L245.018,223.221L244.968,223.252L244.918,223.283L244.868,223.315L244.818,223.347L244.769,223.379L244.72,223.412L244.67,223.445L244.621,223.479L244.573,223.513L244.524,223.547L244.476,223.581L244.427,223.616L244.379,223.651L244.331,223.687L244.283,223.722L244.236,223.759L244.188,223.795L244.141,223.832L244.094,223.869L244.047,223.907L244.001,223.945L243.954,223.983L243.908,224.021L243.862,224.06L243.816,224.099L243.77,224.139L243.724,224.179L243.679,224.219L243.634,224.26L243.589,224.301L243.544,224.342L243.499,224.383L243.455,224.425L243.411,224.468L243.367,224.51L243.323,224.553L243.285,224.591L198.476,269.362C194.767,273.068 194.765,279.088 198.471,282.797C202.177,286.506 208.197,286.509 211.906,282.803L240.5,254.233L240.5,398.727C240.5,403.971 244.757,408.227 250,408.227C255.243,408.227 259.5,403.971 259.5,398.727L259.5,254.233L288.094,282.803C291.803,286.509 297.823,286.506 301.529,282.797C305.235,279.088 305.233,273.068 301.524,269.362L256.715,224.591L256.671,224.548L256.627,224.505L256.583,224.462L256.539,224.42L256.495,224.378L256.45,224.336L256.405,224.295L256.36,224.254L256.315,224.214L256.27,224.174L256.224,224.134L256.178,224.094L256.132,224.055L256.086,224.016L256.04,223.978L255.993,223.939L255.947,223.902L255.9,223.864L255.853,223.827L255.805,223.79L255.758,223.754L255.71,223.718L255.662,223.682L255.614,223.646L255.566,223.611L255.518,223.577L255.469,223.542L255.421,223.508L255.372,223.474L255.323,223.441L255.274,223.408L255.224,223.375L255.175,223.343L255.125,223.311L255.076,223.279L255.026,223.247L254.976,223.216L254.925,223.186L254.875,223.155L254.824,223.125L254.774,223.096L254.723,223.066L254.672,223.037L254.621,223.009L254.57,222.98L254.518,222.952L254.467,222.925L254.415,222.897L254.363,222.87L254.311,222.844L254.259,222.818L254.207,222.792L254.155,222.766L254.102,222.741L254.05,222.716L253.997,222.691L253.944,222.667L253.892,222.643L253.839,222.62L253.785,222.596L253.732,222.573L253.679,222.551L253.625,222.529L253.619,222.526C252.503,222.065 251.281,221.811 250,221.811C248.719,221.811 247.497,222.065 246.381,222.526ZM105.832,198.945C70.14,203.551 42.563,234.059 42.563,271.007C42.563,271.009 42.563,271.01 42.563,271.011C42.563,311.145 75.098,343.679 115.231,343.679L205.191,343.679C210.434,343.679 214.691,339.422 214.691,334.179C214.691,328.936 210.434,324.679 205.191,324.679L115.231,324.679C85.591,324.679 61.563,300.651 61.563,271.011C61.563,271.011 61.563,271.007 61.563,271.007C61.563,241.501 85.374,217.556 114.826,217.341C114.757,217.341 124.169,210.125 124.253,207.844L124.257,207.839C124.257,180.544 146.417,158.384 173.712,158.384C181.938,158.384 189.698,160.395 196.527,163.957C198.834,165.16 201.533,165.365 203.995,164.523C206.456,163.682 208.465,161.867 209.552,159.504C223.325,129.557 253.596,108.742 288.692,108.742C336.737,108.742 375.743,147.749 375.743,195.794C375.743,199.473 375.515,203.098 375.07,206.664C374.733,209.367 375.573,212.085 377.376,214.128C379.18,216.17 381.773,217.339 384.497,217.339L384.769,217.339C414.409,217.339 438.437,241.367 438.437,271.007C438.437,271.007 438.437,271.011 438.437,271.011C438.437,300.651 414.409,324.679 384.769,324.679L294.809,324.679C289.566,324.679 285.309,328.936 285.309,334.179C285.309,339.422 289.566,343.679 294.809,343.679L384.769,343.679C424.902,343.679 457.437,311.145 457.437,271.011C457.437,271.01 457.437,271.009 457.437,271.007C457.437,234.241 430.133,203.852 394.694,199.017C394.727,197.947 394.743,196.872 394.743,195.794C394.743,137.262 347.223,89.742 288.692,89.742C249.256,89.742 214.817,111.312 196.545,143.293C189.401,140.762 181.716,139.384 173.712,139.384C138.945,139.384 110.197,165.358 105.832,198.945ZM114.757,217.339C114.757,217.339 114.757,217.339 114.757,217.339Z" style="fill:rgb(38,177,227);"/>
    </g>
</svg>
